<mxfile host="app.diagrams.net" modified="2021-04-22T08:29:30.239Z" agent="5.0 (Windows NT 10.0; Win64; x64) AppleWebKit/537.36 (KHTML, like Gecko) Chrome/89.0.4389.128 Safari/537.36" etag="1nYZVUMInyRBSFWNwhxn" version="13.10.6" type="github" pages="2">
  <diagram id="-TYVUlzubCq-ffW3HL39" name="Page-1">
    <mxGraphModel dx="782" dy="1546" grid="1" gridSize="10" guides="1" tooltips="1" connect="1" arrows="1" fold="1" page="1" pageScale="1" pageWidth="850" pageHeight="1100" math="0" shadow="0">
      <root>
        <mxCell id="0" />
        <mxCell id="1" parent="0" />
        <mxCell id="lnten5-UCdvqrzaXk-gv-1" value="" style="rounded=0;whiteSpace=wrap;html=1;shadow=1;sketch=0;glass=0;strokeColor=#57C7FF;" vertex="1" parent="1">
          <mxGeometry x="10" y="-20" width="740" height="400" as="geometry" />
        </mxCell>
        <mxCell id="lnten5-UCdvqrzaXk-gv-2" value="" style="verticalLabelPosition=bottom;html=1;verticalAlign=top;align=center;strokeColor=none;fillColor=#00BEF2;shape=mxgraph.azure.git_repository;" vertex="1" parent="1">
          <mxGeometry x="10" y="-20" width="50" height="50" as="geometry" />
        </mxCell>
        <mxCell id="lnten5-UCdvqrzaXk-gv-9" value="Master" style="text;html=1;strokeColor=none;fillColor=none;align=center;verticalAlign=middle;whiteSpace=wrap;rounded=0;fontStyle=3" vertex="1" parent="1">
          <mxGeometry x="51" y="119" width="40" height="20" as="geometry" />
        </mxCell>
        <mxCell id="lnten5-UCdvqrzaXk-gv-6" value="" style="rounded=1;whiteSpace=wrap;html=1;fillColor=#f8cecc;strokeColor=#b85450;" vertex="1" parent="1">
          <mxGeometry x="40" y="120" width="60" height="20" as="geometry" />
        </mxCell>
        <mxCell id="lnten5-UCdvqrzaXk-gv-7" value="" style="html=1;verticalAlign=bottom;startArrow=oval;startFill=1;endArrow=open;startSize=6;endSize=8;fillColor=#f8cecc;strokeColor=#b85450;strokeWidth=2;" edge="1" parent="1">
          <mxGeometry x="120" y="121" width="80" as="geometry">
            <mxPoint x="570" y="130" as="sourcePoint" />
            <mxPoint x="640" y="130" as="targetPoint" />
          </mxGeometry>
        </mxCell>
        <mxCell id="lnten5-UCdvqrzaXk-gv-8" value="" style="html=1;verticalAlign=bottom;startArrow=oval;startFill=1;endArrow=none;startSize=6;endSize=8;fillColor=#f8cecc;strokeColor=#b85450;strokeWidth=2;endFill=0;" edge="1" parent="1">
          <mxGeometry x="129" y="119.5" width="80" as="geometry">
            <mxPoint x="209" y="129.5" as="sourcePoint" />
            <mxPoint x="280" y="130" as="targetPoint" />
          </mxGeometry>
        </mxCell>
        <mxCell id="lnten5-UCdvqrzaXk-gv-19" value="" style="html=1;verticalAlign=bottom;startArrow=ERone;startFill=0;endArrow=oval;startSize=6;endSize=8;fillColor=#f8cecc;strokeColor=#b85450;strokeWidth=2;endFill=1;" edge="1" parent="1">
          <mxGeometry x="-310" y="121" width="80" as="geometry">
            <mxPoint x="100" y="129.5" as="sourcePoint" />
            <mxPoint x="140" y="130" as="targetPoint" />
          </mxGeometry>
        </mxCell>
        <mxCell id="lnten5-UCdvqrzaXk-gv-20" value="" style="html=1;verticalAlign=bottom;startArrow=oval;startFill=1;endArrow=none;startSize=6;endSize=8;fillColor=#f8cecc;strokeColor=#b85450;strokeWidth=2;endFill=0;" edge="1" parent="1">
          <mxGeometry x="200" y="119.5" width="80" as="geometry">
            <mxPoint x="280" y="129.5" as="sourcePoint" />
            <mxPoint x="361" y="130" as="targetPoint" />
          </mxGeometry>
        </mxCell>
        <mxCell id="lnten5-UCdvqrzaXk-gv-21" value="" style="html=1;verticalAlign=bottom;startArrow=oval;startFill=1;endArrow=none;startSize=6;endSize=8;fillColor=#f8cecc;strokeColor=#b85450;strokeWidth=2;endFill=0;" edge="1" parent="1">
          <mxGeometry x="280" y="119.5" width="80" as="geometry">
            <mxPoint x="360" y="129.5" as="sourcePoint" />
            <mxPoint x="500" y="130" as="targetPoint" />
          </mxGeometry>
        </mxCell>
        <mxCell id="lnten5-UCdvqrzaXk-gv-22" value="Master" style="text;html=1;strokeColor=none;fillColor=none;align=center;verticalAlign=middle;whiteSpace=wrap;rounded=0;fontStyle=3" vertex="1" parent="1">
          <mxGeometry x="51" y="119" width="40" height="20" as="geometry" />
        </mxCell>
        <mxCell id="lnten5-UCdvqrzaXk-gv-24" value="" style="html=1;verticalAlign=bottom;startArrow=oval;startFill=1;endArrow=open;startSize=6;endSize=8;fillColor=#ffe6cc;strokeColor=#d79b00;strokeWidth=2;" edge="1" parent="1">
          <mxGeometry width="80" relative="1" as="geometry">
            <mxPoint x="180" y="210" as="sourcePoint" />
            <mxPoint x="210" y="130" as="targetPoint" />
          </mxGeometry>
        </mxCell>
        <mxCell id="lnten5-UCdvqrzaXk-gv-25" value="" style="endArrow=none;html=1;strokeWidth=2;fillColor=#ffe6cc;strokeColor=#d79b00;startArrow=ERone;startFill=0;exitX=1;exitY=0.5;exitDx=0;exitDy=0;" edge="1" parent="1" source="lnten5-UCdvqrzaXk-gv-28">
          <mxGeometry width="50" height="50" relative="1" as="geometry">
            <mxPoint x="100" y="249.5" as="sourcePoint" />
            <mxPoint x="150" y="210" as="targetPoint" />
            <Array as="points" />
          </mxGeometry>
        </mxCell>
        <mxCell id="lnten5-UCdvqrzaXk-gv-28" value="&lt;span style=&quot;font-style: italic ; font-weight: 700&quot;&gt;Feature 1&lt;/span&gt;" style="rounded=1;whiteSpace=wrap;html=1;fillColor=#ffe6cc;strokeColor=#d79b00;" vertex="1" parent="1">
          <mxGeometry x="41" y="200" width="60" height="20" as="geometry" />
        </mxCell>
        <mxCell id="lnten5-UCdvqrzaXk-gv-29" value="" style="endArrow=none;html=1;strokeWidth=2;fillColor=#ffe6cc;strokeColor=#d79b00;startArrow=oval;startFill=1;" edge="1" parent="1">
          <mxGeometry width="50" height="50" relative="1" as="geometry">
            <mxPoint x="150" y="209.5" as="sourcePoint" />
            <mxPoint x="180" y="210" as="targetPoint" />
            <Array as="points" />
          </mxGeometry>
        </mxCell>
        <mxCell id="lnten5-UCdvqrzaXk-gv-30" value="" style="html=1;verticalAlign=bottom;startArrow=oval;startFill=1;endArrow=open;startSize=6;endSize=8;fillColor=#ffe6cc;strokeColor=#d79b00;strokeWidth=2;" edge="1" parent="1">
          <mxGeometry width="80" relative="1" as="geometry">
            <mxPoint x="225" y="275" as="sourcePoint" />
            <mxPoint x="280" y="130" as="targetPoint" />
          </mxGeometry>
        </mxCell>
        <mxCell id="lnten5-UCdvqrzaXk-gv-31" value="&lt;span style=&quot;font-style: italic ; font-weight: 700&quot;&gt;Feature 2&lt;/span&gt;" style="rounded=1;whiteSpace=wrap;html=1;fillColor=#ffe6cc;strokeColor=#d79b00;" vertex="1" parent="1">
          <mxGeometry x="41" y="265" width="60" height="20" as="geometry" />
        </mxCell>
        <mxCell id="lnten5-UCdvqrzaXk-gv-32" value="" style="endArrow=none;html=1;strokeWidth=2;fillColor=#ffe6cc;strokeColor=#d79b00;startArrow=oval;startFill=1;" edge="1" parent="1">
          <mxGeometry width="50" height="50" relative="1" as="geometry">
            <mxPoint x="150" y="274.5" as="sourcePoint" />
            <mxPoint x="225" y="275" as="targetPoint" />
            <Array as="points" />
          </mxGeometry>
        </mxCell>
        <mxCell id="lnten5-UCdvqrzaXk-gv-33" value="" style="endArrow=none;html=1;strokeWidth=2;fillColor=#ffe6cc;strokeColor=#d79b00;startArrow=ERone;startFill=0;exitX=1;exitY=0.5;exitDx=0;exitDy=0;" edge="1" parent="1">
          <mxGeometry width="50" height="50" relative="1" as="geometry">
            <mxPoint x="101" y="274.5" as="sourcePoint" />
            <mxPoint x="150" y="274.5" as="targetPoint" />
            <Array as="points" />
          </mxGeometry>
        </mxCell>
        <mxCell id="lnten5-UCdvqrzaXk-gv-34" value="" style="html=1;verticalAlign=bottom;startArrow=oval;startFill=1;endArrow=none;startSize=6;endSize=8;fillColor=#f8cecc;strokeColor=#b85450;strokeWidth=2;endFill=0;" edge="1" parent="1">
          <mxGeometry x="60" y="119.5" width="80" as="geometry">
            <mxPoint x="140" y="129.5" as="sourcePoint" />
            <mxPoint x="211" y="130" as="targetPoint" />
          </mxGeometry>
        </mxCell>
        <mxCell id="lnten5-UCdvqrzaXk-gv-37" value="" style="endArrow=classic;html=1;fillColor=#f8cecc;strokeColor=#b85450;strokeWidth=2;dashed=1;" edge="1" parent="1">
          <mxGeometry width="50" height="50" relative="1" as="geometry">
            <mxPoint x="280" y="130" as="sourcePoint" />
            <mxPoint x="500" y="130" as="targetPoint" />
            <Array as="points">
              <mxPoint x="490" y="30" />
              <mxPoint x="420" y="30" />
              <mxPoint x="350" y="30" />
            </Array>
          </mxGeometry>
        </mxCell>
        <mxCell id="lnten5-UCdvqrzaXk-gv-38" value="" style="html=1;verticalAlign=bottom;startArrow=oval;startFill=1;endArrow=open;startSize=6;endSize=8;fillColor=#f8cecc;strokeColor=#b85450;strokeWidth=2;dashed=1;dashPattern=1 1;" edge="1" parent="1">
          <mxGeometry x="130" y="131" width="80" as="geometry">
            <mxPoint x="140" y="130" as="sourcePoint" />
            <mxPoint x="360" y="130" as="targetPoint" />
            <Array as="points">
              <mxPoint x="250" y="90" />
            </Array>
          </mxGeometry>
        </mxCell>
        <mxCell id="lnten5-UCdvqrzaXk-gv-49" value="" style="html=1;verticalAlign=bottom;startArrow=oval;startFill=1;endArrow=open;startSize=6;endSize=8;fillColor=#ffe6cc;strokeColor=#d79b00;strokeWidth=2;" edge="1" parent="1">
          <mxGeometry width="80" relative="1" as="geometry">
            <mxPoint x="469" y="210" as="sourcePoint" />
            <mxPoint x="499" y="130" as="targetPoint" />
          </mxGeometry>
        </mxCell>
        <mxCell id="lnten5-UCdvqrzaXk-gv-50" value="" style="endArrow=none;html=1;strokeWidth=2;fillColor=#ffe6cc;strokeColor=#d79b00;startArrow=ERone;startFill=0;exitX=1;exitY=0.5;exitDx=0;exitDy=0;" edge="1" parent="1" source="lnten5-UCdvqrzaXk-gv-51">
          <mxGeometry width="50" height="50" relative="1" as="geometry">
            <mxPoint x="389" y="249.5" as="sourcePoint" />
            <mxPoint x="439" y="210" as="targetPoint" />
            <Array as="points" />
          </mxGeometry>
        </mxCell>
        <mxCell id="lnten5-UCdvqrzaXk-gv-51" value="&lt;span style=&quot;font-style: italic ; font-weight: 700&quot;&gt;Feature N1&lt;/span&gt;" style="rounded=1;whiteSpace=wrap;html=1;fillColor=#ffe6cc;strokeColor=#d79b00;" vertex="1" parent="1">
          <mxGeometry x="326" y="200" width="70" height="20" as="geometry" />
        </mxCell>
        <mxCell id="lnten5-UCdvqrzaXk-gv-52" value="" style="endArrow=none;html=1;strokeWidth=2;fillColor=#ffe6cc;strokeColor=#d79b00;startArrow=oval;startFill=1;" edge="1" parent="1">
          <mxGeometry width="50" height="50" relative="1" as="geometry">
            <mxPoint x="439" y="209.5" as="sourcePoint" />
            <mxPoint x="469" y="210" as="targetPoint" />
            <Array as="points" />
          </mxGeometry>
        </mxCell>
        <mxCell id="lnten5-UCdvqrzaXk-gv-53" value="" style="html=1;verticalAlign=bottom;startArrow=oval;startFill=1;endArrow=open;startSize=6;endSize=8;fillColor=#ffe6cc;strokeColor=#d79b00;strokeWidth=2;" edge="1" parent="1">
          <mxGeometry width="80" relative="1" as="geometry">
            <mxPoint x="514" y="275" as="sourcePoint" />
            <mxPoint x="569" y="130" as="targetPoint" />
          </mxGeometry>
        </mxCell>
        <mxCell id="lnten5-UCdvqrzaXk-gv-54" value="&lt;span style=&quot;font-style: italic ; font-weight: 700&quot;&gt;Feature N2&lt;/span&gt;" style="rounded=1;whiteSpace=wrap;html=1;fillColor=#ffe6cc;strokeColor=#d79b00;" vertex="1" parent="1">
          <mxGeometry x="325" y="265" width="70" height="20" as="geometry" />
        </mxCell>
        <mxCell id="lnten5-UCdvqrzaXk-gv-55" value="" style="endArrow=none;html=1;strokeWidth=2;fillColor=#ffe6cc;strokeColor=#d79b00;startArrow=oval;startFill=1;" edge="1" parent="1">
          <mxGeometry width="50" height="50" relative="1" as="geometry">
            <mxPoint x="439" y="274.5" as="sourcePoint" />
            <mxPoint x="514" y="275" as="targetPoint" />
            <Array as="points" />
          </mxGeometry>
        </mxCell>
        <mxCell id="lnten5-UCdvqrzaXk-gv-56" value="" style="endArrow=none;html=1;strokeWidth=2;fillColor=#ffe6cc;strokeColor=#d79b00;startArrow=ERone;startFill=0;exitX=1;exitY=0.5;exitDx=0;exitDy=0;" edge="1" parent="1">
          <mxGeometry width="50" height="50" relative="1" as="geometry">
            <mxPoint x="390" y="274.5" as="sourcePoint" />
            <mxPoint x="439" y="274.5" as="targetPoint" />
            <Array as="points" />
          </mxGeometry>
        </mxCell>
        <mxCell id="lnten5-UCdvqrzaXk-gv-57" value="" style="endArrow=classic;html=1;fillColor=#f8cecc;strokeColor=#b85450;strokeWidth=2;dashed=1;entryX=0.5;entryY=0;entryDx=0;entryDy=0;" edge="1" parent="1" target="lnten5-UCdvqrzaXk-gv-51">
          <mxGeometry width="50" height="50" relative="1" as="geometry">
            <mxPoint x="360" y="130" as="sourcePoint" />
            <mxPoint x="150" y="140" as="targetPoint" />
            <Array as="points">
              <mxPoint x="360" y="170" />
            </Array>
          </mxGeometry>
        </mxCell>
        <mxCell id="lnten5-UCdvqrzaXk-gv-58" value="" style="endArrow=classic;html=1;fillColor=#f8cecc;strokeColor=#b85450;strokeWidth=2;dashed=1;entryX=0.5;entryY=0;entryDx=0;entryDy=0;" edge="1" parent="1" target="lnten5-UCdvqrzaXk-gv-54">
          <mxGeometry width="50" height="50" relative="1" as="geometry">
            <mxPoint x="360" y="220" as="sourcePoint" />
            <mxPoint x="370" y="210" as="targetPoint" />
            <Array as="points" />
          </mxGeometry>
        </mxCell>
        <mxCell id="lnten5-UCdvqrzaXk-gv-59" value="" style="html=1;verticalAlign=bottom;startArrow=oval;startFill=1;endArrow=open;startSize=6;endSize=8;fillColor=#ffe6cc;strokeColor=#d79b00;strokeWidth=2;exitX=0.5;exitY=1;exitDx=0;exitDy=0;dashed=1;dashPattern=1 1;" edge="1" parent="1" source="lnten5-UCdvqrzaXk-gv-28">
          <mxGeometry width="80" relative="1" as="geometry">
            <mxPoint x="190" y="220" as="sourcePoint" />
            <mxPoint x="440" y="210" as="targetPoint" />
            <Array as="points">
              <mxPoint x="270" y="260" />
            </Array>
          </mxGeometry>
        </mxCell>
        <mxCell id="lnten5-UCdvqrzaXk-gv-60" value="" style="html=1;verticalAlign=bottom;startArrow=oval;startFill=1;endArrow=open;startSize=6;endSize=8;fillColor=#ffe6cc;strokeColor=#d79b00;strokeWidth=2;exitX=0.5;exitY=1;exitDx=0;exitDy=0;dashed=1;dashPattern=1 1;" edge="1" parent="1">
          <mxGeometry width="80" relative="1" as="geometry">
            <mxPoint x="70" y="286" as="sourcePoint" />
            <mxPoint x="439" y="276" as="targetPoint" />
            <Array as="points">
              <mxPoint x="269" y="326" />
            </Array>
          </mxGeometry>
        </mxCell>
        <mxCell id="lnten5-UCdvqrzaXk-gv-61" value="" style="html=1;verticalAlign=bottom;startArrow=oval;startFill=1;endArrow=none;startSize=6;endSize=8;fillColor=#f8cecc;strokeColor=#b85450;strokeWidth=2;endFill=0;" edge="1" parent="1">
          <mxGeometry x="420" y="119.5" width="80" as="geometry">
            <mxPoint x="500" y="129.5" as="sourcePoint" />
            <mxPoint x="570" y="130" as="targetPoint" />
          </mxGeometry>
        </mxCell>
        <mxCell id="lnten5-UCdvqrzaXk-gv-62" value="Rebase" style="text;html=1;strokeColor=none;fillColor=none;align=center;verticalAlign=middle;whiteSpace=wrap;rounded=0;fontStyle=3" vertex="1" parent="1">
          <mxGeometry x="180" y="30" width="40" height="20" as="geometry" />
        </mxCell>
        <mxCell id="lnten5-UCdvqrzaXk-gv-65" value="Fix" style="text;html=1;strokeColor=none;fillColor=none;align=center;verticalAlign=middle;whiteSpace=wrap;rounded=0;fontStyle=3" vertex="1" parent="1">
          <mxGeometry x="230" y="95" width="40" height="20" as="geometry" />
        </mxCell>
        <mxCell id="lnten5-UCdvqrzaXk-gv-67" value="Merge" style="text;html=1;strokeColor=none;fillColor=none;align=center;verticalAlign=middle;whiteSpace=wrap;rounded=0;fontStyle=3" vertex="1" parent="1">
          <mxGeometry x="150" y="160" width="40" height="20" as="geometry" />
        </mxCell>
        <mxCell id="lnten5-UCdvqrzaXk-gv-68" value="Merge" style="text;html=1;strokeColor=none;fillColor=none;align=center;verticalAlign=middle;whiteSpace=wrap;rounded=0;fontStyle=3" vertex="1" parent="1">
          <mxGeometry x="210" y="180" width="40" height="20" as="geometry" />
        </mxCell>
        <mxCell id="lnten5-UCdvqrzaXk-gv-69" value="Cherry-pick" style="text;html=1;strokeColor=none;fillColor=none;align=center;verticalAlign=middle;whiteSpace=wrap;rounded=0;fontStyle=3" vertex="1" parent="1">
          <mxGeometry x="230" y="230" width="70" height="20" as="geometry" />
        </mxCell>
        <mxCell id="lnten5-UCdvqrzaXk-gv-70" value="Cherry-pick" style="text;html=1;strokeColor=none;fillColor=none;align=center;verticalAlign=middle;whiteSpace=wrap;rounded=0;fontStyle=3" vertex="1" parent="1">
          <mxGeometry x="230" y="300" width="70" height="20" as="geometry" />
        </mxCell>
        <mxCell id="lnten5-UCdvqrzaXk-gv-71" value="" style="html=1;verticalAlign=bottom;startArrow=oval;startFill=1;endArrow=open;startSize=6;endSize=8;fillColor=#f8cecc;strokeColor=#b85450;strokeWidth=2;" edge="1" parent="1">
          <mxGeometry x="120" y="120.75" width="80" as="geometry">
            <mxPoint x="570" y="129.75" as="sourcePoint" />
            <mxPoint x="640" y="129.75" as="targetPoint" />
          </mxGeometry>
        </mxCell>
        <mxCell id="lnten5-UCdvqrzaXk-gv-72" value="" style="html=1;verticalAlign=bottom;startArrow=oval;startFill=1;endArrow=none;startSize=6;endSize=8;fillColor=#f8cecc;strokeColor=#b85450;strokeWidth=2;endFill=0;" edge="1" parent="1">
          <mxGeometry x="420" y="119.25" width="80" as="geometry">
            <mxPoint x="500" y="129.25" as="sourcePoint" />
            <mxPoint x="570" y="129.75" as="targetPoint" />
          </mxGeometry>
        </mxCell>
        <mxCell id="lnten5-UCdvqrzaXk-gv-73" value="" style="html=1;verticalAlign=bottom;startArrow=oval;startFill=1;endArrow=none;startSize=6;endSize=8;fillColor=#f8cecc;strokeColor=#b85450;strokeWidth=2;endFill=0;" edge="1" parent="1">
          <mxGeometry x="280" y="119.25" width="80" as="geometry">
            <mxPoint x="360" y="129.25" as="sourcePoint" />
            <mxPoint x="500" y="129.75" as="targetPoint" />
          </mxGeometry>
        </mxCell>
        <mxCell id="lnten5-UCdvqrzaXk-gv-74" value="" style="html=1;verticalAlign=bottom;startArrow=oval;startFill=1;endArrow=none;startSize=6;endSize=8;fillColor=#f8cecc;strokeColor=#b85450;strokeWidth=2;endFill=0;" edge="1" parent="1">
          <mxGeometry x="200" y="119.25" width="80" as="geometry">
            <mxPoint x="280" y="129.25" as="sourcePoint" />
            <mxPoint x="361" y="129.75" as="targetPoint" />
          </mxGeometry>
        </mxCell>
        <mxCell id="lnten5-UCdvqrzaXk-gv-75" value="" style="html=1;verticalAlign=bottom;startArrow=oval;startFill=1;endArrow=none;startSize=6;endSize=8;fillColor=#f8cecc;strokeColor=#b85450;strokeWidth=2;endFill=0;" edge="1" parent="1">
          <mxGeometry x="129" y="119.25" width="80" as="geometry">
            <mxPoint x="209" y="129.25" as="sourcePoint" />
            <mxPoint x="280" y="129.75" as="targetPoint" />
          </mxGeometry>
        </mxCell>
        <mxCell id="lnten5-UCdvqrzaXk-gv-76" value="" style="html=1;verticalAlign=bottom;startArrow=oval;startFill=1;endArrow=none;startSize=6;endSize=8;fillColor=#f8cecc;strokeColor=#b85450;strokeWidth=2;endFill=0;" edge="1" parent="1">
          <mxGeometry x="60" y="119.25" width="80" as="geometry">
            <mxPoint x="140" y="129.25" as="sourcePoint" />
            <mxPoint x="211" y="129.75" as="targetPoint" />
          </mxGeometry>
        </mxCell>
        <mxCell id="lnten5-UCdvqrzaXk-gv-77" value="" style="html=1;verticalAlign=bottom;startArrow=ERone;startFill=0;endArrow=oval;startSize=6;endSize=8;fillColor=#f8cecc;strokeColor=#b85450;strokeWidth=2;endFill=1;" edge="1" parent="1">
          <mxGeometry x="-310" y="120.75" width="80" as="geometry">
            <mxPoint x="100" y="129.25" as="sourcePoint" />
            <mxPoint x="140" y="129.75" as="targetPoint" />
          </mxGeometry>
        </mxCell>
      </root>
    </mxGraphModel>
  </diagram>
  <diagram id="iWVGmQ1JGESvl0YupkyA" name="Page-2">
    <mxGraphModel dx="782" dy="446" grid="1" gridSize="10" guides="1" tooltips="1" connect="1" arrows="1" fold="1" page="1" pageScale="1" pageWidth="850" pageHeight="1100" math="0" shadow="0">
      <root>
        <mxCell id="3UYnQxWQKB01w5R00U0y-0" />
        <mxCell id="3UYnQxWQKB01w5R00U0y-1" parent="3UYnQxWQKB01w5R00U0y-0" />
        <mxCell id="UXIDfep13BuCWQYuZn_--0" value="" style="rounded=0;whiteSpace=wrap;html=1;shadow=1;sketch=0;glass=0;strokeColor=#57C7FF;" vertex="1" parent="3UYnQxWQKB01w5R00U0y-1">
          <mxGeometry x="10" y="250" width="740" height="330" as="geometry" />
        </mxCell>
        <mxCell id="UXIDfep13BuCWQYuZn_--1" value="" style="verticalLabelPosition=bottom;html=1;verticalAlign=top;align=center;strokeColor=none;fillColor=#00BEF2;shape=mxgraph.azure.git_repository;" vertex="1" parent="3UYnQxWQKB01w5R00U0y-1">
          <mxGeometry x="10" y="250" width="50" height="50" as="geometry" />
        </mxCell>
        <mxCell id="UXIDfep13BuCWQYuZn_--2" value="" style="html=1;verticalAlign=bottom;startArrow=oval;startFill=1;endArrow=open;startSize=6;endSize=8;fillColor=#ffe6cc;strokeColor=#d79b00;strokeWidth=2;" edge="1" parent="3UYnQxWQKB01w5R00U0y-1">
          <mxGeometry width="80" relative="1" as="geometry">
            <mxPoint x="189" y="470.75" as="sourcePoint" />
            <mxPoint x="219" y="390.75" as="targetPoint" />
          </mxGeometry>
        </mxCell>
        <mxCell id="UXIDfep13BuCWQYuZn_--3" value="&lt;span style=&quot;font-style: italic ; font-weight: 700&quot;&gt;Feature 1&lt;/span&gt;" style="rounded=1;whiteSpace=wrap;html=1;fillColor=#ffe6cc;strokeColor=#d79b00;" vertex="1" parent="3UYnQxWQKB01w5R00U0y-1">
          <mxGeometry x="46" y="460.75" width="60" height="20" as="geometry" />
        </mxCell>
        <mxCell id="UXIDfep13BuCWQYuZn_--4" value="" style="endArrow=none;html=1;strokeWidth=2;fillColor=#ffe6cc;strokeColor=#d79b00;startArrow=oval;startFill=1;" edge="1" parent="3UYnQxWQKB01w5R00U0y-1">
          <mxGeometry width="50" height="50" relative="1" as="geometry">
            <mxPoint x="159" y="470.25" as="sourcePoint" />
            <mxPoint x="189" y="470.75" as="targetPoint" />
            <Array as="points" />
          </mxGeometry>
        </mxCell>
        <mxCell id="UXIDfep13BuCWQYuZn_--5" value="" style="html=1;verticalAlign=bottom;startArrow=oval;startFill=1;endArrow=open;startSize=6;endSize=8;fillColor=#f8cecc;strokeColor=#b85450;strokeWidth=2;" edge="1" parent="3UYnQxWQKB01w5R00U0y-1">
          <mxGeometry x="129" y="381.5" width="80" as="geometry">
            <mxPoint x="579" y="390.5" as="sourcePoint" />
            <mxPoint x="649" y="390.5" as="targetPoint" />
          </mxGeometry>
        </mxCell>
        <mxCell id="UXIDfep13BuCWQYuZn_--6" value="" style="html=1;verticalAlign=bottom;startArrow=oval;startFill=1;endArrow=none;startSize=6;endSize=8;fillColor=#f8cecc;strokeColor=#b85450;strokeWidth=2;endFill=0;" edge="1" parent="3UYnQxWQKB01w5R00U0y-1">
          <mxGeometry x="429" y="380" width="80" as="geometry">
            <mxPoint x="509" y="390" as="sourcePoint" />
            <mxPoint x="579" y="390.5" as="targetPoint" />
          </mxGeometry>
        </mxCell>
        <mxCell id="UXIDfep13BuCWQYuZn_--7" value="" style="html=1;verticalAlign=bottom;startArrow=oval;startFill=1;endArrow=none;startSize=6;endSize=8;fillColor=#f8cecc;strokeColor=#b85450;strokeWidth=2;endFill=0;" edge="1" parent="3UYnQxWQKB01w5R00U0y-1">
          <mxGeometry x="289" y="380" width="80" as="geometry">
            <mxPoint x="369" y="390" as="sourcePoint" />
            <mxPoint x="509" y="390.5" as="targetPoint" />
          </mxGeometry>
        </mxCell>
        <mxCell id="UXIDfep13BuCWQYuZn_--8" value="" style="html=1;verticalAlign=bottom;startArrow=oval;startFill=1;endArrow=none;startSize=6;endSize=8;fillColor=#f8cecc;strokeColor=#b85450;strokeWidth=2;endFill=0;" edge="1" parent="3UYnQxWQKB01w5R00U0y-1">
          <mxGeometry x="209" y="380" width="80" as="geometry">
            <mxPoint x="289" y="390" as="sourcePoint" />
            <mxPoint x="370" y="390.5" as="targetPoint" />
          </mxGeometry>
        </mxCell>
        <mxCell id="UXIDfep13BuCWQYuZn_--9" value="" style="html=1;verticalAlign=bottom;startArrow=oval;startFill=1;endArrow=none;startSize=6;endSize=8;fillColor=#f8cecc;strokeColor=#b85450;strokeWidth=2;endFill=0;" edge="1" parent="3UYnQxWQKB01w5R00U0y-1">
          <mxGeometry x="138" y="380" width="80" as="geometry">
            <mxPoint x="218" y="390" as="sourcePoint" />
            <mxPoint x="289" y="390.5" as="targetPoint" />
          </mxGeometry>
        </mxCell>
        <mxCell id="UXIDfep13BuCWQYuZn_--10" value="" style="html=1;verticalAlign=bottom;startArrow=oval;startFill=1;endArrow=none;startSize=6;endSize=8;fillColor=#f8cecc;strokeColor=#b85450;strokeWidth=2;endFill=0;" edge="1" parent="3UYnQxWQKB01w5R00U0y-1">
          <mxGeometry x="69" y="380" width="80" as="geometry">
            <mxPoint x="149" y="390" as="sourcePoint" />
            <mxPoint x="220" y="390.5" as="targetPoint" />
          </mxGeometry>
        </mxCell>
        <mxCell id="UXIDfep13BuCWQYuZn_--11" value="" style="html=1;verticalAlign=bottom;startArrow=ERone;startFill=0;endArrow=oval;startSize=6;endSize=8;fillColor=#f8cecc;strokeColor=#b85450;strokeWidth=2;endFill=1;" edge="1" parent="3UYnQxWQKB01w5R00U0y-1">
          <mxGeometry x="-301" y="381.5" width="80" as="geometry">
            <mxPoint x="109" y="390" as="sourcePoint" />
            <mxPoint x="149" y="390.5" as="targetPoint" />
          </mxGeometry>
        </mxCell>
        <mxCell id="UXIDfep13BuCWQYuZn_--12" value="" style="endArrow=none;html=1;strokeWidth=2;fillColor=#ffe6cc;strokeColor=#d79b00;startArrow=ERone;startFill=0;exitX=1;exitY=0.5;exitDx=0;exitDy=0;" edge="1" parent="3UYnQxWQKB01w5R00U0y-1">
          <mxGeometry width="50" height="50" relative="1" as="geometry">
            <mxPoint x="107" y="470.25" as="sourcePoint" />
            <mxPoint x="156" y="470.25" as="targetPoint" />
            <Array as="points" />
          </mxGeometry>
        </mxCell>
        <mxCell id="DzLooDwfNut0CuSad1FV-1" value="" style="edgeStyle=orthogonalEdgeStyle;rounded=0;orthogonalLoop=1;jettySize=auto;html=1;dashed=1;dashPattern=1 1;startArrow=ERone;startFill=0;endArrow=oval;endFill=1;strokeWidth=2;" edge="1" parent="3UYnQxWQKB01w5R00U0y-1" source="DzLooDwfNut0CuSad1FV-0" target="UXIDfep13BuCWQYuZn_--3">
          <mxGeometry relative="1" as="geometry" />
        </mxCell>
        <mxCell id="DzLooDwfNut0CuSad1FV-0" value="&lt;b&gt;Master&lt;/b&gt;" style="rounded=1;whiteSpace=wrap;html=1;fillColor=#f8cecc;strokeColor=#b85450;" vertex="1" parent="3UYnQxWQKB01w5R00U0y-1">
          <mxGeometry x="46" y="380" width="60" height="20" as="geometry" />
        </mxCell>
        <mxCell id="sA84oRb_zBAXeZktSsuk-1" value="" style="endArrow=oval;html=1;strokeWidth=2;fillColor=#dae8fc;strokeColor=#6c8ebf;startArrow=none;startFill=0;endFill=1;exitX=1.233;exitY=0.517;exitDx=0;exitDy=0;exitPerimeter=0;" edge="1" parent="3UYnQxWQKB01w5R00U0y-1" source="sA84oRb_zBAXeZktSsuk-5">
          <mxGeometry width="50" height="50" relative="1" as="geometry">
            <mxPoint x="139" y="310" as="sourcePoint" />
            <mxPoint x="190" y="310" as="targetPoint" />
            <Array as="points" />
          </mxGeometry>
        </mxCell>
        <mxCell id="sA84oRb_zBAXeZktSsuk-3" value="" style="endArrow=none;html=1;strokeWidth=2;fillColor=#dae8fc;strokeColor=#6c8ebf;startArrow=none;startFill=0;" edge="1" parent="3UYnQxWQKB01w5R00U0y-1">
          <mxGeometry width="50" height="50" relative="1" as="geometry">
            <mxPoint x="190" y="310" as="sourcePoint" />
            <mxPoint x="240" y="310" as="targetPoint" />
            <Array as="points" />
          </mxGeometry>
        </mxCell>
        <mxCell id="sA84oRb_zBAXeZktSsuk-4" value="" style="rounded=1;whiteSpace=wrap;html=1;fillColor=#dae8fc;strokeColor=#6c8ebf;" vertex="1" parent="3UYnQxWQKB01w5R00U0y-1">
          <mxGeometry x="46" y="300" width="60" height="20" as="geometry" />
        </mxCell>
        <mxCell id="sA84oRb_zBAXeZktSsuk-5" value="HotFix" style="text;html=1;strokeColor=none;fillColor=none;align=center;verticalAlign=middle;whiteSpace=wrap;rounded=0;fontStyle=3" vertex="1" parent="3UYnQxWQKB01w5R00U0y-1">
          <mxGeometry x="56" y="300" width="40" height="20" as="geometry" />
        </mxCell>
        <mxCell id="sA84oRb_zBAXeZktSsuk-6" value="" style="html=1;verticalAlign=bottom;startArrow=oval;startFill=1;endArrow=open;startSize=6;endSize=8;fillColor=#f8cecc;strokeColor=#b85450;strokeWidth=2;dashed=1;" edge="1" parent="3UYnQxWQKB01w5R00U0y-1">
          <mxGeometry x="139" y="391.5" width="80" as="geometry">
            <mxPoint x="150" y="390" as="sourcePoint" />
            <mxPoint x="190" y="310" as="targetPoint" />
          </mxGeometry>
        </mxCell>
        <mxCell id="sA84oRb_zBAXeZktSsuk-7" value="" style="endArrow=none;html=1;strokeWidth=2;fillColor=#dae8fc;strokeColor=#6c8ebf;startArrow=oval;startFill=1;" edge="1" parent="3UYnQxWQKB01w5R00U0y-1">
          <mxGeometry width="50" height="50" relative="1" as="geometry">
            <mxPoint x="240" y="309.5" as="sourcePoint" />
            <mxPoint x="290" y="309.5" as="targetPoint" />
            <Array as="points" />
          </mxGeometry>
        </mxCell>
        <mxCell id="sA84oRb_zBAXeZktSsuk-8" value="" style="endArrow=oval;html=1;strokeWidth=2;fillColor=#dae8fc;strokeColor=#6c8ebf;startArrow=oval;startFill=1;endFill=1;" edge="1" parent="3UYnQxWQKB01w5R00U0y-1">
          <mxGeometry width="50" height="50" relative="1" as="geometry">
            <mxPoint x="290" y="309.5" as="sourcePoint" />
            <mxPoint x="500" y="309.5" as="targetPoint" />
            <Array as="points" />
          </mxGeometry>
        </mxCell>
        <mxCell id="sA84oRb_zBAXeZktSsuk-9" value="" style="html=1;verticalAlign=bottom;startArrow=oval;startFill=1;endArrow=open;startSize=6;endSize=8;fillColor=#dae8fc;strokeColor=#6c8ebf;strokeWidth=2;dashed=1;" edge="1" parent="3UYnQxWQKB01w5R00U0y-1">
          <mxGeometry width="80" relative="1" as="geometry">
            <mxPoint x="290" y="310" as="sourcePoint" />
            <mxPoint x="370" y="390" as="targetPoint" />
          </mxGeometry>
        </mxCell>
        <mxCell id="sA84oRb_zBAXeZktSsuk-10" value="" style="html=1;verticalAlign=bottom;startArrow=oval;startFill=1;endArrow=open;startSize=6;endSize=8;fillColor=#f8cecc;strokeColor=#b85450;strokeWidth=2;dashed=1;" edge="1" parent="3UYnQxWQKB01w5R00U0y-1">
          <mxGeometry x="149" y="401.5" width="80" as="geometry">
            <mxPoint x="370" y="390" as="sourcePoint" />
            <mxPoint x="500" y="310" as="targetPoint" />
          </mxGeometry>
        </mxCell>
        <mxCell id="sA84oRb_zBAXeZktSsuk-11" value="" style="endArrow=open;html=1;strokeWidth=2;fillColor=#dae8fc;strokeColor=#6c8ebf;startArrow=oval;startFill=1;endFill=0;" edge="1" parent="3UYnQxWQKB01w5R00U0y-1">
          <mxGeometry width="50" height="50" relative="1" as="geometry">
            <mxPoint x="500" y="309.5" as="sourcePoint" />
            <mxPoint x="650" y="310" as="targetPoint" />
            <Array as="points" />
          </mxGeometry>
        </mxCell>
        <mxCell id="sA84oRb_zBAXeZktSsuk-12" value="" style="html=1;verticalAlign=bottom;startArrow=oval;startFill=1;endArrow=open;startSize=6;endSize=8;fillColor=#ffe6cc;strokeColor=#d79b00;strokeWidth=2;" edge="1" parent="3UYnQxWQKB01w5R00U0y-1">
          <mxGeometry width="80" relative="1" as="geometry">
            <mxPoint x="232" y="540" as="sourcePoint" />
            <mxPoint x="290" y="390" as="targetPoint" />
          </mxGeometry>
        </mxCell>
        <mxCell id="sA84oRb_zBAXeZktSsuk-13" value="&lt;span style=&quot;font-style: italic ; font-weight: 700&quot;&gt;Feature 2&lt;/span&gt;" style="rounded=1;whiteSpace=wrap;html=1;fillColor=#ffe6cc;strokeColor=#d79b00;" vertex="1" parent="3UYnQxWQKB01w5R00U0y-1">
          <mxGeometry x="46" y="530" width="60" height="20" as="geometry" />
        </mxCell>
        <mxCell id="sA84oRb_zBAXeZktSsuk-14" value="" style="endArrow=none;html=1;strokeWidth=2;fillColor=#ffe6cc;strokeColor=#d79b00;startArrow=oval;startFill=1;" edge="1" parent="3UYnQxWQKB01w5R00U0y-1">
          <mxGeometry width="50" height="50" relative="1" as="geometry">
            <mxPoint x="159" y="539.5" as="sourcePoint" />
            <mxPoint x="232" y="540" as="targetPoint" />
            <Array as="points" />
          </mxGeometry>
        </mxCell>
        <mxCell id="sA84oRb_zBAXeZktSsuk-15" value="" style="endArrow=none;html=1;strokeWidth=2;fillColor=#ffe6cc;strokeColor=#d79b00;startArrow=ERone;startFill=0;exitX=1;exitY=0.5;exitDx=0;exitDy=0;" edge="1" parent="3UYnQxWQKB01w5R00U0y-1">
          <mxGeometry width="50" height="50" relative="1" as="geometry">
            <mxPoint x="107" y="539.5" as="sourcePoint" />
            <mxPoint x="156" y="539.5" as="targetPoint" />
            <Array as="points" />
          </mxGeometry>
        </mxCell>
      </root>
    </mxGraphModel>
  </diagram>
</mxfile>
